<?xml version="1.0" encoding="UTF-8"?>
<svg xmlns="http://www.w3.org/2000/svg" xmlns:xlink="http://www.w3.org/1999/xlink" width="24px" height="24px" viewBox="0 0 24 24" version="1.1">
<g id="surface1">
<path d="M 20.722656 6.304688 C 21.347656 6.984375 21.636719 7.792969 21.597656 8.765625 L 21.597656 16.359375 C 21.582031 17.347656 21.25 18.160156 20.601562 18.796875 C 19.957031 19.4375 19.136719 19.769531 18.144531 19.800781 L 5.851562 19.800781 C 4.859375 19.769531 4.042969 19.433594 3.402344 18.78125 C 2.761719 18.128906 2.425781 17.269531 2.398438 16.207031 L 2.398438 8.765625 C 2.429688 7.792969 2.765625 6.984375 3.402344 6.304688 C 4.042969 5.691406 4.855469 5.355469 5.851562 5.324219 L 6.953125 5.324219 L 6 4.359375 C 5.785156 4.144531 5.675781 3.871094 5.675781 3.539062 C 5.675781 3.210938 5.785156 2.9375 6 2.722656 C 6.214844 2.507812 6.488281 2.398438 6.820312 2.398438 C 7.15625 2.398438 7.425781 2.507812 7.640625 2.722656 L 10.390625 5.324219 L 13.691406 5.324219 L 16.484375 2.722656 C 16.714844 2.507812 16.996094 2.398438 17.324219 2.398438 C 17.65625 2.398438 17.929688 2.507812 18.144531 2.722656 C 18.359375 2.9375 18.46875 3.210938 18.46875 3.539062 C 18.46875 3.871094 18.359375 4.144531 18.144531 4.359375 L 17.199219 5.324219 L 18.296875 5.324219 C 19.285156 5.355469 20.097656 5.691406 20.722656 6.304688 Z M 19.265625 8.917969 C 19.253906 8.558594 19.128906 8.265625 18.867188 8.035156 C 18.671875 7.808594 18.339844 7.683594 18.015625 7.667969 L 6 7.667969 C 5.640625 7.683594 5.347656 7.808594 5.113281 8.035156 C 4.886719 8.265625 4.761719 8.558594 4.746094 8.917969 L 4.746094 16.207031 C 4.746094 16.550781 4.871094 16.84375 5.113281 17.089844 C 5.359375 17.332031 5.65625 17.457031 6 17.457031 L 18.015625 17.457031 C 18.359375 17.457031 18.652344 17.332031 18.890625 17.089844 C 19.125 16.84375 19.253906 16.550781 19.265625 16.207031 Z M 9.355469 10.519531 C 9.59375 10.753906 9.71875 11.046875 9.734375 11.390625 L 9.734375 12.636719 C 9.71875 12.984375 9.597656 13.269531 9.367188 13.507812 C 9.136719 13.742188 8.84375 13.863281 8.484375 13.863281 C 8.121094 13.863281 7.828125 13.742188 7.597656 13.507812 C 7.367188 13.269531 7.246094 12.984375 7.230469 12.636719 L 7.230469 11.390625 C 7.246094 11.046875 7.371094 10.753906 7.609375 10.519531 C 7.84375 10.28125 8.105469 10.160156 8.484375 10.144531 C 8.828125 10.160156 9.121094 10.28125 9.355469 10.519531 Z M 16.539062 10.519531 C 16.773438 10.753906 16.902344 11.046875 16.917969 11.390625 L 16.917969 12.636719 C 16.902344 12.984375 16.777344 13.269531 16.546875 13.507812 C 16.320312 13.742188 16.023438 13.863281 15.664062 13.863281 C 15.304688 13.863281 15.011719 13.742188 14.777344 13.507812 C 14.515625 13.269531 14.425781 12.984375 14.414062 12.636719 L 14.414062 11.390625 C 14.425781 11.046875 14.554688 10.753906 14.789062 10.519531 C 15.027344 10.28125 15.320312 10.160156 15.664062 10.144531 C 16.007812 10.160156 16.300781 10.28125 16.539062 10.519531 Z M 16.539062 10.519531 "/>
</g>
</svg>
