<?xml version="1.0" encoding="UTF-8"?>
<svg xmlns="http://www.w3.org/2000/svg" xmlns:xlink="http://www.w3.org/1999/xlink" width="24px" height="24px" viewBox="0 0 24 24" version="1.1">
<g id="surface1">
<path d="M 2.398438 12 C 2.398438 10.253906 2.867188 8.609375 3.6875 7.167969 L 7.804688 14.335938 C 8.625 15.804688 10.195312 16.800781 12 16.800781 C 12.535156 16.800781 13.015625 16.714844 13.53125 16.550781 L 10.667969 21.511719 C 5.996094 20.859375 2.398438 16.847656 2.398438 12 Z M 16.089844 14.460938 C 16.550781 13.738281 16.800781 12.867188 16.800781 12 C 16.800781 10.566406 16.171875 9.28125 15.175781 8.398438 L 20.902344 8.398438 C 21.351562 9.511719 21.601562 10.730469 21.601562 12 C 21.601562 17.300781 17.300781 21.566406 12 21.601562 Z M 20.316406 7.199219 L 12 7.199219 C 9.640625 7.199219 7.734375 8.855469 7.292969 11.050781 L 4.433594 6.09375 C 6.1875 3.84375 8.925781 2.398438 12 2.398438 C 15.554688 2.398438 18.65625 4.332031 20.316406 7.199219 Z M 15.300781 12 C 15.300781 13.824219 13.824219 15.300781 12 15.300781 C 10.175781 15.300781 8.699219 13.824219 8.699219 12 C 8.699219 10.175781 10.175781 8.699219 12 8.699219 C 13.824219 8.699219 15.300781 10.175781 15.300781 12 Z M 15.300781 12 "/>
</g>
</svg>
