<?xml version="1.0" encoding="UTF-8"?>
<svg xmlns="http://www.w3.org/2000/svg" xmlns:xlink="http://www.w3.org/1999/xlink" width="24px" height="24px" viewBox="0 0 24 24" version="1.1">
<g id="surface1">
<path d="M 9 4.5 L 9 6 L 15 6 L 15 4.5 C 15 4.335938 14.863281 4.199219 14.699219 4.199219 L 9.300781 4.199219 C 9.136719 4.199219 9 4.335938 9 4.5 Z M 7.199219 6 L 7.199219 4.5 C 7.199219 3.339844 8.140625 2.398438 9.300781 2.398438 L 14.699219 2.398438 C 15.859375 2.398438 16.800781 3.339844 16.800781 4.5 L 16.800781 6 L 17.855469 6 C 18.328125 6 18.789062 6.191406 19.125 6.527344 L 21.070312 8.476562 C 21.410156 8.8125 21.601562 9.269531 21.601562 9.746094 L 21.601562 12.601562 L 16.5 12.601562 L 16.5 12 C 16.5 11.5 16.097656 11.101562 15.601562 11.101562 C 15.101562 11.101562 14.699219 11.5 14.699219 12 L 14.699219 12.601562 L 9.300781 12.601562 L 9.300781 12 C 9.300781 11.5 8.898438 11.101562 8.398438 11.101562 C 7.902344 11.101562 7.5 11.5 7.5 12 L 7.5 12.601562 L 2.398438 12.601562 L 2.398438 9.746094 C 2.398438 9.269531 2.589844 8.8125 2.929688 8.476562 L 4.875 6.527344 C 5.210938 6.191406 5.671875 6 6.144531 6 Z M 2.398438 18 L 2.398438 14.398438 L 7.5 14.398438 L 7.5 15 C 7.5 15.5 7.902344 15.898438 8.398438 15.898438 C 8.898438 15.898438 9.300781 15.5 9.300781 15 L 9.300781 14.398438 L 14.699219 14.398438 L 14.699219 15 C 14.699219 15.5 15.101562 15.898438 15.601562 15.898438 C 16.097656 15.898438 16.5 15.5 16.5 15 L 16.5 14.398438 L 21.601562 14.398438 L 21.601562 18 C 21.601562 19.324219 20.523438 20.398438 19.199219 20.398438 L 4.800781 20.398438 C 3.476562 20.398438 2.398438 19.324219 2.398438 18 Z M 2.398438 18 "/>
</g>
</svg>
